# xmcd
#
# Track frame offsets:
#	150
#	9621
#	19366
#	32760
#	44467
#	53630
#	69323
#	79603
#	96379
#	109760
#	119912
#	128610
#	137293
#	149039
#	161637
#	174033
#	187415
#	197006
#	208924
#	221769
#
# Disc length: 3080 seconds
#
# Revision: 1
# Processed by: cddbd v1.5.2PL0 Copyright (c) Steve Scherf et al.
# Submitted via: audiograbber 1.83.01
#
DISCID=2c0c0614
DTITLE=Various Artist -  Northern Soul (Backdrops, Highkicks And Handclaps) #2
DYEAR=2016
DGENRE=Soul
TTITLE0=Kim D - The Real Thing
TTITLE1=Jason Knight - Love Is Getting Stronger
TTITLE2=The Heartstoppers - Marching Out Of Your Life
TTITLE3=Jackie Trent - You Baby
TTITLE4=Kenny Bernard - Ain't No Soul (Left In These Old Shoes)
TTITLE5=The Devonnes - I'm Gonna Pick Up My Toys (And Go Home)
TTITLE6=Sylvia - It's A Good Life
TTITLE7=The Rimshots - Do What You Feel
TTITLE8=Retta Young - You Beat Me To The Punch
TTITLE9=Willie and The Mighty Magnificents - Check It Baby
TTITLE10=The Ferris Wheel - Number One Guy
TTITLE11=Leonard Whiting - That's What Mama Say
TTITLE12=The Playthings - Stop What You're Doing
TTITLE13=Father's Angels - Bok To Bach
TTITLE14=Ebony Keyes - If You Knew
TTITLE15=Margo and The Marvettes - When Love Slips Away
TTITLE16=Willie And West - Get Away From Me Girl
TTITLE17=Geno Washington - If This Is Love (I'd Rather Be Lonely)
TTITLE18=The Three Tops - Do It Right (Soul Version)
TTITLE19=Cherry People - And Suddenly
EXTD=
EXTT0=
EXTT1=
EXTT2=
EXTT3=
EXTT4=
EXTT5=
EXTT6=
EXTT7=
EXTT8=
EXTT9=
EXTT10=
EXTT11=
EXTT12=
EXTT13=
EXTT14=
EXTT15=
EXTT16=
EXTT17=
EXTT18=
EXTT19=
PLAYORDER=
